<svg xmlns="http://www.w3.org/2000/svg" xmlns:xlink="http://www.w3.org/1999/xlink" width="2400" zoomAndPan="magnify" viewBox="0 0 1800 299.999988" height="400" preserveAspectRatio="xMidYMid meet" version="1.0"><defs><g/><clipPath id="22c87ded2d"><path d="M 0 103.046875 L 197.25 103.046875 L 197.25 300 L 0 300 Z M 0 103.046875 " clip-rule="nonzero"/></clipPath><clipPath id="b7133fdd9e"><path d="M 1603.324219 0 L 1800 0 L 1800 196.945312 L 1603.324219 196.945312 Z M 1603.324219 0 " clip-rule="nonzero"/></clipPath><clipPath id="d8a327cae9"><path d="M 833.125 78.734375 L 966.625 78.734375 L 966.625 124.484375 L 833.125 124.484375 Z M 833.125 78.734375 " clip-rule="nonzero"/></clipPath></defs><rect x="-180" width="2160" fill="#ffffff" y="-29.999999" height="359.999986" fill-opacity="1"/><rect x="-180" width="2160" fill="#ffffff" y="-29.999999" height="359.999986" fill-opacity="1"/><rect x="-180" width="2160" fill="#121214" y="-29.999999" height="359.999986" fill-opacity="1"/><g clip-path="url(#22c87ded2d)"><path fill="#737373" d="M 197.242188 201.21875 L 197.242188 103.929688 C 197.242188 103.683594 197.15625 103.476562 196.984375 103.304688 C 196.8125 103.132812 196.605469 103.046875 196.359375 103.046875 L 196.167969 103.046875 C 193.28125 103.046875 190.402344 103.175781 187.527344 103.429688 C 184.652344 103.683594 181.796875 104.0625 178.957031 104.570312 C 176.113281 105.074219 173.300781 105.707031 170.515625 106.460938 C 167.730469 107.214844 164.984375 108.089844 162.277344 109.085938 C 159.570312 110.082031 156.910156 111.195312 154.300781 112.425781 C 151.691406 113.65625 149.140625 114.996094 146.648438 116.453125 C 144.15625 117.910156 141.734375 119.46875 139.378906 121.140625 C 137.027344 122.808594 134.75 124.578125 132.550781 126.445312 C 130.355469 128.316406 128.242188 130.277344 126.21875 132.332031 C 124.191406 134.390625 122.261719 136.53125 120.425781 138.753906 C 118.589844 140.980469 116.855469 143.285156 115.222656 145.660156 C 113.585938 148.039062 112.0625 150.484375 110.644531 153 C 109.226562 155.511719 107.921875 158.082031 106.730469 160.710938 C 105.539062 163.339844 104.464844 166.015625 103.511719 168.738281 C 102.554688 171.460938 101.722656 174.21875 101.007812 177.015625 C 100.296875 179.8125 99.707031 182.632812 99.246094 185.480469 L 99.246094 103.929688 C 99.246094 103.683594 99.160156 103.476562 98.988281 103.304688 C 98.816406 103.132812 98.609375 103.046875 98.367188 103.046875 L 98.171875 103.046875 C 96.566406 103.046875 94.960938 103.085938 93.355469 103.167969 C 91.75 103.246094 90.148438 103.363281 88.550781 103.519531 C 86.949219 103.679688 85.355469 103.875 83.765625 104.109375 C 82.179688 104.347656 80.59375 104.621094 79.019531 104.933594 C 77.445312 105.25 75.875 105.601562 74.316406 105.992188 C 72.757812 106.378906 71.210938 106.808594 69.675781 107.277344 C 68.136719 107.742188 66.613281 108.246094 65.097656 108.785156 C 63.585938 109.328125 62.085938 109.90625 60.601562 110.519531 C 59.117188 111.136719 57.648438 111.785156 56.199219 112.472656 C 54.746094 113.160156 53.3125 113.882812 51.894531 114.640625 C 50.476562 115.398438 49.078125 116.1875 47.703125 117.015625 C 46.324219 117.839844 44.964844 118.699219 43.628906 119.59375 C 42.292969 120.484375 40.980469 121.410156 39.691406 122.367188 C 38.402344 123.324219 37.132812 124.3125 35.890625 125.332031 C 34.648438 126.351562 33.433594 127.402344 32.242188 128.480469 C 31.054688 129.558594 29.890625 130.667969 28.753906 131.800781 C 27.617188 132.9375 26.511719 134.101562 25.429688 135.292969 C 24.351562 136.484375 23.304688 137.699219 22.285156 138.941406 C 21.265625 140.183594 20.277344 141.449219 19.320312 142.738281 C 18.363281 144.03125 17.4375 145.34375 16.546875 146.679688 C 15.652344 148.015625 14.792969 149.371094 13.96875 150.75 C 13.140625 152.128906 12.347656 153.523438 11.59375 154.941406 C 10.835938 156.359375 10.113281 157.792969 9.425781 159.246094 C 8.738281 160.699219 8.085938 162.167969 7.472656 163.652344 C 6.859375 165.136719 6.28125 166.632812 5.738281 168.148438 C 5.199219 169.660156 4.695312 171.183594 4.226562 172.722656 C 3.761719 174.261719 3.332031 175.808594 2.941406 177.367188 C 2.550781 178.925781 2.199219 180.492188 1.886719 182.066406 C 1.574219 183.644531 1.296875 185.226562 1.0625 186.816406 C 0.828125 188.40625 0.628906 190 0.472656 191.597656 C 0.316406 193.195312 0.195312 194.796875 0.117188 196.402344 C 0.0390625 198.007812 0 199.613281 0 201.21875 L 0 299.410156 C 0 299.652344 0.0859375 299.859375 0.257812 300.03125 C 0.429688 300.203125 0.636719 300.289062 0.878906 300.289062 L 98.367188 300.289062 C 98.535156 300.230469 98.703125 300.230469 98.871094 300.289062 L 196.359375 300.289062 C 196.605469 300.289062 196.8125 300.203125 196.984375 300.03125 C 197.15625 299.859375 197.242188 299.652344 197.242188 299.410156 L 197.242188 298.710938 C 197.242188 295.878906 197.117188 293.054688 196.875 290.234375 C 196.628906 287.414062 196.265625 284.613281 195.777344 281.824219 C 195.292969 279.035156 194.6875 276.273438 193.960938 273.535156 C 193.238281 270.800781 192.398438 268.101562 191.441406 265.4375 C 190.480469 262.773438 189.410156 260.15625 188.230469 257.585938 C 187.046875 255.015625 185.753906 252.5 184.355469 250.039062 C 182.953125 247.582031 181.449219 245.1875 179.84375 242.855469 C 178.238281 240.527344 176.53125 238.269531 174.730469 236.085938 C 172.929688 233.902344 171.039062 231.800781 169.054688 229.78125 C 167.074219 227.761719 165.007812 225.832031 162.859375 223.992188 C 160.707031 222.148438 158.484375 220.402344 156.183594 218.753906 C 153.882812 217.105469 151.519531 215.554688 149.085938 214.109375 C 146.652344 212.664062 144.160156 211.328125 141.613281 210.097656 C 139.0625 208.867188 136.464844 207.746094 133.820312 206.742188 C 131.175781 205.734375 128.492188 204.84375 125.769531 204.070312 C 123.046875 203.292969 120.296875 202.636719 117.519531 202.101562 L 196.359375 202.101562 C 196.605469 202.101562 196.8125 202.015625 196.984375 201.84375 C 197.15625 201.671875 197.242188 201.464844 197.242188 201.21875 Z M 70.433594 229.152344 C 66.988281 225.6875 63.304688 222.5 59.378906 219.589844 C 55.453125 216.679688 51.335938 214.078125 47.019531 211.785156 C 42.703125 209.492188 38.242188 207.535156 33.632812 205.910156 C 29.027344 204.289062 24.320312 203.015625 19.523438 202.101562 L 97.992188 202.101562 L 97.992188 282.953125 C 97.179688 277.886719 95.980469 272.914062 94.382812 268.035156 C 92.789062 263.15625 90.824219 258.433594 88.484375 253.867188 C 86.144531 249.296875 83.460938 244.941406 80.433594 240.796875 C 77.40625 236.652344 74.074219 232.769531 70.433594 229.152344 Z M 30 133.046875 C 32.207031 130.828125 34.515625 128.722656 36.929688 126.726562 C 39.34375 124.734375 41.847656 122.863281 44.445312 121.117188 C 47.042969 119.371094 49.71875 117.753906 52.476562 116.269531 C 55.230469 114.785156 58.050781 113.4375 60.9375 112.230469 C 63.828125 111.019531 66.765625 109.957031 69.757812 109.039062 C 72.75 108.117188 75.78125 107.347656 78.847656 106.722656 C 81.914062 106.101562 85.007812 105.628906 88.121094 105.308594 C 91.234375 104.988281 94.355469 104.820312 97.484375 104.808594 L 97.484375 200.339844 L 1.761719 200.339844 C 1.78125 197.21875 1.953125 194.105469 2.277344 191 C 2.601562 187.894531 3.074219 184.8125 3.703125 181.753906 C 4.328125 178.695312 5.101562 175.671875 6.023438 172.691406 C 6.945312 169.707031 8.007812 166.777344 9.21875 163.898438 C 10.425781 161.019531 11.769531 158.207031 13.253906 155.457031 C 14.738281 152.710938 16.351562 150.042969 18.09375 147.453125 C 19.839844 144.863281 21.707031 142.367188 23.695312 139.960938 C 25.683594 137.550781 27.785156 135.25 30 133.046875 Z M 195.480469 298.53125 L 99.75 298.53125 L 99.75 202.105469 C 101.320312 202.117188 102.890625 202.171875 104.457031 202.261719 C 106.023438 202.351562 107.589844 202.480469 109.148438 202.648438 C 110.710938 202.816406 112.265625 203.019531 113.820312 203.265625 C 115.371094 203.507812 116.914062 203.789062 118.453125 204.105469 C 119.988281 204.421875 121.519531 204.777344 123.039062 205.171875 C 124.558594 205.566406 126.066406 205.992188 127.566406 206.460938 C 129.066406 206.925781 130.554688 207.429688 132.027344 207.96875 C 133.503906 208.507812 134.964844 209.082031 136.410156 209.691406 C 137.855469 210.300781 139.289062 210.945312 140.703125 211.625 C 142.117188 212.304688 143.515625 213.019531 144.894531 213.769531 C 146.277344 214.515625 147.636719 215.296875 148.980469 216.113281 C 150.324219 216.925781 151.644531 217.773438 152.945312 218.652344 C 154.246094 219.53125 155.523438 220.441406 156.78125 221.382812 C 158.039062 222.320312 159.273438 223.292969 160.480469 224.292969 C 161.691406 225.296875 162.875 226.324219 164.035156 227.382812 C 165.191406 228.445312 166.324219 229.53125 167.433594 230.644531 C 168.539062 231.757812 169.617188 232.898438 170.667969 234.066406 C 171.71875 235.234375 172.738281 236.425781 173.730469 237.640625 C 174.722656 238.859375 175.6875 240.097656 176.617188 241.359375 C 177.550781 242.625 178.449219 243.910156 179.320312 245.21875 C 180.1875 246.523438 181.027344 247.851562 181.832031 249.199219 C 182.636719 250.550781 183.40625 251.914062 184.144531 253.300781 C 184.882812 254.6875 185.585938 256.089844 186.257812 257.511719 C 186.925781 258.929688 187.558594 260.367188 188.160156 261.816406 C 188.757812 263.269531 189.324219 264.734375 189.851562 266.210938 C 190.378906 267.691406 190.871094 269.179688 191.328125 270.683594 C 191.78125 272.1875 192.199219 273.699219 192.582031 275.222656 C 192.964844 276.746094 193.308594 278.277344 193.617188 279.816406 C 193.921875 281.355469 194.191406 282.902344 194.421875 284.453125 C 194.65625 286.007812 194.847656 287.566406 195.003906 289.128906 C 195.160156 290.6875 195.277344 292.253906 195.359375 293.824219 C 195.4375 295.390625 195.476562 296.960938 195.480469 298.53125 Z M 195.480469 200.339844 L 99.753906 200.339844 C 99.769531 198.777344 99.820312 197.21875 99.910156 195.660156 C 100 194.101562 100.128906 192.542969 100.296875 190.992188 C 100.460938 189.4375 100.664062 187.890625 100.90625 186.347656 C 101.144531 184.804688 101.421875 183.269531 101.738281 181.738281 C 102.054688 180.210938 102.40625 178.6875 102.796875 177.175781 C 103.1875 175.664062 103.613281 174.164062 104.074219 172.671875 C 104.535156 171.179688 105.035156 169.699219 105.570312 168.234375 C 106.101562 166.765625 106.671875 165.3125 107.277344 163.871094 C 107.882812 162.433594 108.523438 161.007812 109.195312 159.597656 C 109.871094 158.191406 110.578125 156.800781 111.320312 155.425781 C 112.0625 154.050781 112.835938 152.695312 113.644531 151.359375 C 114.449219 150.023438 115.289062 148.707031 116.160156 147.410156 C 117.035156 146.113281 117.9375 144.839844 118.867188 143.589844 C 119.800781 142.335938 120.765625 141.109375 121.757812 139.902344 C 122.753906 138.699219 123.773438 137.515625 124.824219 136.363281 C 125.875 135.207031 126.953125 134.078125 128.058594 132.972656 C 129.164062 131.871094 130.292969 130.796875 131.453125 129.746094 C 132.609375 128.699219 133.792969 127.679688 135 126.6875 C 136.207031 125.699219 137.4375 124.738281 138.691406 123.808594 C 139.945312 122.875 141.21875 121.976562 142.519531 121.105469 C 143.816406 120.238281 145.132812 119.402344 146.472656 118.597656 C 147.808594 117.792969 149.167969 117.019531 150.542969 116.28125 C 151.917969 115.542969 153.3125 114.835938 154.722656 114.164062 C 156.132812 113.496094 157.558594 112.859375 158.996094 112.257812 C 160.4375 111.652344 161.894531 111.085938 163.363281 110.554688 C 164.832031 110.023438 166.3125 109.53125 167.804688 109.070312 C 169.296875 108.609375 170.796875 108.1875 172.3125 107.800781 C 173.824219 107.414062 175.347656 107.066406 176.875 106.753906 C 178.40625 106.441406 179.941406 106.167969 181.488281 105.929688 C 183.03125 105.691406 184.578125 105.492188 186.132812 105.328125 C 187.683594 105.167969 189.242188 105.042969 190.800781 104.953125 C 192.359375 104.867188 193.917969 104.820312 195.480469 104.808594 Z M 195.480469 200.339844 " fill-opacity="1" fill-rule="nonzero"/></g><g clip-path="url(#b7133fdd9e)"><path fill="#737373" d="M 1603.027344 98.773438 L 1603.027344 196.066406 C 1603.027344 196.308594 1603.113281 196.515625 1603.285156 196.6875 C 1603.457031 196.859375 1603.664062 196.945312 1603.90625 196.945312 L 1604.101562 196.945312 C 1606.984375 196.945312 1609.867188 196.816406 1612.738281 196.5625 C 1615.613281 196.308594 1618.472656 195.929688 1621.3125 195.421875 C 1624.152344 194.917969 1626.964844 194.289062 1629.75 193.535156 C 1632.535156 192.78125 1635.28125 191.90625 1637.992188 190.910156 C 1640.699219 189.914062 1643.359375 188.800781 1645.96875 187.570312 C 1648.578125 186.339844 1651.128906 184.996094 1653.621094 183.539062 C 1656.113281 182.085938 1658.535156 180.523438 1660.886719 178.855469 C 1663.242188 177.1875 1665.519531 175.417969 1667.714844 173.546875 C 1669.914062 171.679688 1672.027344 169.714844 1674.050781 167.660156 C 1676.074219 165.605469 1678.007812 163.464844 1679.84375 161.238281 C 1681.679688 159.011719 1683.414062 156.710938 1685.046875 154.332031 C 1686.679688 151.953125 1688.207031 149.507812 1689.625 146.996094 C 1691.042969 144.480469 1692.347656 141.910156 1693.539062 139.28125 C 1694.730469 136.65625 1695.800781 133.980469 1696.757812 131.257812 C 1697.714844 128.535156 1698.546875 125.773438 1699.257812 122.976562 C 1699.972656 120.183594 1700.558594 117.359375 1701.023438 114.511719 L 1701.023438 196.066406 C 1701.023438 196.308594 1701.109375 196.515625 1701.28125 196.6875 C 1701.453125 196.859375 1701.660156 196.945312 1701.902344 196.945312 L 1702.097656 196.945312 C 1703.703125 196.945312 1705.308594 196.90625 1706.914062 196.828125 C 1708.519531 196.75 1710.121094 196.628906 1711.71875 196.472656 C 1713.316406 196.316406 1714.910156 196.117188 1716.5 195.882812 C 1718.089844 195.648438 1719.671875 195.371094 1721.25 195.058594 C 1722.824219 194.746094 1724.390625 194.394531 1725.949219 194.003906 C 1727.507812 193.613281 1729.054688 193.183594 1730.59375 192.71875 C 1732.132812 192.25 1733.65625 191.746094 1735.167969 191.207031 C 1736.683594 190.664062 1738.179688 190.085938 1739.664062 189.472656 C 1741.148438 188.859375 1742.617188 188.207031 1744.070312 187.519531 C 1745.523438 186.832031 1746.957031 186.109375 1748.375 185.351562 C 1749.789062 184.597656 1751.1875 183.804688 1752.566406 182.976562 C 1753.945312 182.152344 1755.300781 181.292969 1756.636719 180.398438 C 1757.972656 179.507812 1759.285156 178.582031 1760.578125 177.625 C 1761.867188 176.667969 1763.132812 175.679688 1764.375 174.660156 C 1765.617188 173.640625 1766.832031 172.59375 1768.023438 171.515625 C 1769.214844 170.433594 1770.378906 169.328125 1771.515625 168.191406 C 1772.648438 167.054688 1773.757812 165.890625 1774.835938 164.703125 C 1775.914062 163.511719 1776.964844 162.296875 1777.984375 161.054688 C 1779.003906 159.8125 1779.992188 158.542969 1780.949219 157.253906 C 1781.90625 155.964844 1782.832031 154.652344 1783.722656 153.316406 C 1784.617188 151.980469 1785.476562 150.621094 1786.300781 149.242188 C 1787.125 147.867188 1787.917969 146.46875 1788.675781 145.050781 C 1789.433594 143.632812 1790.15625 142.199219 1790.84375 140.746094 C 1791.527344 139.296875 1792.179688 137.828125 1792.792969 136.34375 C 1793.410156 134.859375 1793.988281 133.359375 1794.527344 131.847656 C 1795.070312 130.332031 1795.574219 128.808594 1796.039062 127.269531 C 1796.507812 125.734375 1796.933594 124.1875 1797.324219 122.628906 C 1797.714844 121.070312 1798.066406 119.5 1798.382812 117.925781 C 1798.695312 116.351562 1798.96875 114.765625 1799.207031 113.179688 C 1799.441406 111.589844 1799.636719 109.996094 1799.796875 108.394531 C 1799.953125 106.796875 1800.070312 105.195312 1800.148438 103.589844 C 1800.226562 101.984375 1800.269531 100.378906 1800.269531 98.773438 L 1800.269531 0.585938 C 1800.269531 0.339844 1800.183594 0.132812 1800.011719 -0.0390625 C 1799.839844 -0.210938 1799.628906 -0.296875 1799.386719 -0.296875 L 1701.902344 -0.296875 C 1701.734375 -0.234375 1701.566406 -0.234375 1701.394531 -0.296875 L 1603.90625 -0.296875 C 1603.664062 -0.296875 1603.457031 -0.210938 1603.285156 -0.0390625 C 1603.113281 0.132812 1603.027344 0.339844 1603.027344 0.585938 L 1603.027344 1.285156 C 1603.027344 4.113281 1603.148438 6.9375 1603.394531 9.757812 C 1603.636719 12.578125 1604.003906 15.382812 1604.488281 18.171875 C 1604.976562 20.957031 1605.582031 23.71875 1606.304688 26.457031 C 1607.03125 29.191406 1607.871094 31.890625 1608.828125 34.554688 C 1609.785156 37.21875 1610.855469 39.835938 1612.039062 42.40625 C 1613.222656 44.976562 1614.511719 47.492188 1615.914062 49.953125 C 1617.3125 52.414062 1618.816406 54.808594 1620.425781 57.136719 C 1622.03125 59.46875 1623.734375 61.722656 1625.535156 63.90625 C 1627.335938 66.089844 1629.230469 68.191406 1631.210938 70.210938 C 1633.195312 72.230469 1635.261719 74.160156 1637.410156 76.003906 C 1639.558594 77.84375 1641.785156 79.589844 1644.082031 81.238281 C 1646.382812 82.890625 1648.75 84.4375 1651.183594 85.882812 C 1653.617188 87.328125 1656.109375 88.664062 1658.65625 89.898438 C 1661.203125 91.128906 1663.800781 92.246094 1666.445312 93.253906 C 1669.09375 94.257812 1671.777344 95.148438 1674.5 95.925781 C 1677.21875 96.699219 1679.96875 97.355469 1682.75 97.894531 L 1603.90625 97.894531 C 1603.664062 97.894531 1603.457031 97.980469 1603.285156 98.152344 C 1603.113281 98.324219 1603.027344 98.53125 1603.027344 98.773438 Z M 1729.832031 70.84375 C 1733.28125 74.304688 1736.964844 77.492188 1740.890625 80.40625 C 1744.8125 83.316406 1748.933594 85.917969 1753.246094 88.210938 C 1757.5625 90.503906 1762.023438 92.460938 1766.632812 94.082031 C 1771.242188 95.707031 1775.945312 96.976562 1780.746094 97.894531 L 1702.277344 97.894531 L 1702.277344 17.039062 C 1703.085938 22.109375 1704.289062 27.082031 1705.882812 31.960938 C 1707.476562 36.835938 1709.445312 41.558594 1711.785156 46.128906 C 1714.125 50.695312 1716.808594 55.050781 1719.835938 59.195312 C 1722.859375 63.34375 1726.195312 67.222656 1729.832031 70.84375 Z M 1770.269531 166.945312 C 1768.0625 169.164062 1765.75 171.273438 1763.335938 173.265625 C 1760.925781 175.257812 1758.417969 177.128906 1755.820312 178.875 C 1753.226562 180.625 1750.546875 182.238281 1747.792969 183.722656 C 1745.039062 185.210938 1742.214844 186.554688 1739.328125 187.765625 C 1736.441406 188.972656 1733.5 190.035156 1730.507812 190.957031 C 1727.515625 191.875 1724.488281 192.648438 1721.421875 193.269531 C 1718.351562 193.894531 1715.261719 194.363281 1712.148438 194.683594 C 1709.035156 195.003906 1705.914062 195.171875 1702.78125 195.183594 L 1702.78125 99.652344 L 1798.507812 99.652344 C 1798.488281 102.777344 1798.316406 105.890625 1797.992188 108.996094 C 1797.667969 112.097656 1797.191406 115.179688 1796.566406 118.242188 C 1795.941406 121.300781 1795.167969 124.320312 1794.246094 127.304688 C 1793.324219 130.285156 1792.257812 133.21875 1791.050781 136.097656 C 1789.84375 138.976562 1788.496094 141.789062 1787.015625 144.535156 C 1785.53125 147.28125 1783.917969 149.949219 1782.171875 152.539062 C 1780.429688 155.128906 1778.5625 157.628906 1776.574219 160.035156 C 1774.585938 162.441406 1772.484375 164.746094 1770.269531 166.945312 Z M 1604.785156 1.464844 L 1700.515625 1.464844 L 1700.515625 97.890625 C 1698.945312 97.875 1697.378906 97.824219 1695.808594 97.730469 C 1694.242188 97.640625 1692.679688 97.511719 1691.117188 97.34375 C 1689.554688 97.175781 1688 96.972656 1686.449219 96.730469 C 1684.898438 96.488281 1683.355469 96.207031 1681.816406 95.886719 C 1680.277344 95.570312 1678.75 95.214844 1677.230469 94.820312 C 1675.710938 94.429688 1674.199219 94 1672.699219 93.53125 C 1671.203125 93.066406 1669.714844 92.5625 1668.238281 92.027344 C 1666.765625 91.488281 1665.304688 90.914062 1663.859375 90.300781 C 1662.410156 89.691406 1660.980469 89.046875 1659.566406 88.367188 C 1658.148438 87.6875 1656.753906 86.972656 1655.371094 86.226562 C 1653.992188 85.476562 1652.628906 84.695312 1651.289062 83.882812 C 1649.945312 83.066406 1648.625 82.222656 1647.324219 81.34375 C 1646.019531 80.464844 1644.742188 79.554688 1643.484375 78.613281 C 1642.230469 77.671875 1640.996094 76.699219 1639.785156 75.699219 C 1638.578125 74.699219 1637.394531 73.667969 1636.234375 72.609375 C 1635.074219 71.550781 1633.941406 70.464844 1632.835938 69.347656 C 1631.730469 68.234375 1630.652344 67.09375 1629.601562 65.925781 C 1628.550781 64.761719 1627.527344 63.570312 1626.535156 62.351562 C 1625.542969 61.136719 1624.582031 59.894531 1623.648438 58.632812 C 1622.71875 57.367188 1621.816406 56.082031 1620.949219 54.777344 C 1620.078125 53.46875 1619.242188 52.140625 1618.4375 50.792969 C 1617.632812 49.445312 1616.859375 48.078125 1616.121094 46.691406 C 1615.386719 45.304688 1614.679688 43.902344 1614.011719 42.484375 C 1613.34375 41.0625 1612.707031 39.628906 1612.109375 38.175781 C 1611.507812 36.726562 1610.945312 35.261719 1610.417969 33.78125 C 1609.886719 32.304688 1609.398438 30.8125 1608.941406 29.308594 C 1608.484375 27.808594 1608.066406 26.296875 1607.683594 24.773438 C 1607.304688 23.25 1606.960938 21.71875 1606.652344 20.179688 C 1606.34375 18.636719 1606.074219 17.09375 1605.84375 15.539062 C 1605.613281 13.988281 1605.417969 12.429688 1605.261719 10.867188 C 1605.105469 9.304688 1604.988281 7.738281 1604.910156 6.171875 C 1604.832031 4.601562 1604.789062 3.035156 1604.785156 1.464844 Z M 1604.785156 99.652344 L 1700.511719 99.652344 C 1700.496094 101.214844 1700.445312 102.773438 1700.355469 104.335938 C 1700.265625 105.894531 1700.136719 107.449219 1699.972656 109.003906 C 1699.808594 110.554688 1699.605469 112.101562 1699.363281 113.644531 C 1699.121094 115.1875 1698.84375 116.726562 1698.527344 118.253906 C 1698.214844 119.785156 1697.859375 121.304688 1697.472656 122.816406 C 1697.082031 124.328125 1696.65625 125.832031 1696.195312 127.324219 C 1695.730469 128.8125 1695.234375 130.292969 1694.699219 131.761719 C 1694.164062 133.230469 1693.59375 134.683594 1692.992188 136.121094 C 1692.386719 137.5625 1691.746094 138.984375 1691.070312 140.394531 C 1690.398438 141.804688 1689.691406 143.195312 1688.949219 144.570312 C 1688.207031 145.941406 1687.433594 147.296875 1686.625 148.636719 C 1685.816406 149.972656 1684.976562 151.289062 1684.105469 152.582031 C 1683.234375 153.878906 1682.332031 155.152344 1681.398438 156.40625 C 1680.464844 157.65625 1679.503906 158.886719 1678.507812 160.089844 C 1677.515625 161.296875 1676.492188 162.476562 1675.445312 163.632812 C 1674.394531 164.789062 1673.316406 165.917969 1672.210938 167.019531 C 1671.105469 168.121094 1669.972656 169.199219 1668.816406 170.246094 C 1667.65625 171.292969 1666.476562 172.3125 1665.269531 173.304688 C 1664.0625 174.296875 1662.832031 175.257812 1661.578125 176.1875 C 1660.324219 177.117188 1659.046875 178.019531 1657.75 178.886719 C 1656.453125 179.753906 1655.132812 180.59375 1653.796875 181.398438 C 1652.457031 182.203125 1651.101562 182.972656 1649.726562 183.710938 C 1648.347656 184.453125 1646.957031 185.15625 1645.546875 185.828125 C 1644.136719 186.5 1642.710938 187.136719 1641.269531 187.738281 C 1639.828125 188.339844 1638.375 188.90625 1636.90625 189.4375 C 1635.4375 189.96875 1633.957031 190.464844 1632.464844 190.921875 C 1630.972656 191.382812 1629.46875 191.804688 1627.957031 192.191406 C 1626.441406 192.578125 1624.921875 192.925781 1623.390625 193.238281 C 1621.859375 193.550781 1620.324219 193.828125 1618.78125 194.066406 C 1617.238281 194.300781 1615.6875 194.503906 1614.136719 194.664062 C 1612.582031 194.828125 1611.027344 194.953125 1609.46875 195.039062 C 1607.910156 195.125 1606.347656 195.175781 1604.785156 195.183594 Z M 1604.785156 99.652344 " fill-opacity="1" fill-rule="nonzero"/></g><g fill="#d9d9d9" fill-opacity="1"><g transform="translate(628.335921, 163.037756)"><g><path d="M 7.25 -0.0351562 C 8.84375 -0.0351562 10.542969 -0.59375 11.46875 -1.886719 L 11.949219 -2.554688 L 11.949219 -0.109375 L 17.535156 -1.851562 L 17.535156 -2.554688 C 16.277344 -2.589844 15.761719 -3.253906 15.761719 -4.585938 L 15.761719 -25.789062 L 10.210938 -24.046875 L 10.210938 -23.382812 C 11.433594 -23.308594 11.949219 -22.640625 11.949219 -21.347656 L 11.949219 -16.277344 L 11.542969 -16.648438 C 10.730469 -17.316406 9.398438 -17.460938 8.289062 -17.460938 C 2.921875 -17.460938 0.886719 -13.6875 0.886719 -8.621094 C 0.886719 -4.21875 2.441406 -0.0351562 7.25 -0.0351562 Z M 9.359375 -16.832031 C 10.359375 -16.832031 11.171875 -16.316406 11.726562 -15.539062 C 11.726562 -15.5 11.800781 -15.390625 11.839844 -15.390625 C 11.914062 -15.28125 11.949219 -15.167969 11.949219 -15.019531 L 11.949219 -3.476562 C 11.949219 -3.328125 11.875 -3.21875 11.839844 -3.144531 C 11.800781 -3.109375 11.765625 -3.070312 11.726562 -2.996094 C 11.097656 -2.035156 10.027344 -1.148438 8.769531 -1.148438 C 5.402344 -1.148438 4.921875 -5.734375 4.921875 -7.917969 C 4.921875 -10.582031 5.808594 -16.832031 9.359375 -16.832031 Z M 9.359375 -16.832031 "/></g></g></g><g fill="#d9d9d9" fill-opacity="1"><g transform="translate(645.909055, 163.037756)"><g><path d="M 0.925781 -8.472656 C 0.925781 -3.550781 3.664062 0.371094 8.769531 0.371094 C 12.246094 0.371094 13.949219 -1.367188 15.429688 -4.253906 L 15.09375 -4.476562 C 13.984375 -2.996094 12.097656 -2.070312 10.285156 -2.070312 C 6.363281 -2.070312 4.921875 -6.179688 4.921875 -9.324219 L 4.921875 -9.839844 L 15.464844 -9.839844 L 15.464844 -9.953125 C 15.464844 -14.171875 12.914062 -17.425781 8.582031 -17.425781 C 3.550781 -17.425781 0.925781 -13.28125 0.925781 -8.472656 Z M 4.996094 -10.691406 C 5.144531 -12.46875 6.066406 -16.871094 8.398438 -16.871094 C 10.691406 -16.871094 11.433594 -12.429688 11.507812 -10.691406 L 11.507812 -10.433594 L 4.996094 -10.433594 Z M 4.996094 -10.691406 "/></g></g></g><g fill="#d9d9d9" fill-opacity="1"><g transform="translate(662.335307, 163.037756)"><g><path d="M 8.363281 0.371094 C 11.582031 0.371094 13.503906 -1.074219 14.910156 -3.8125 L 14.503906 -4.070312 C 13.542969 -2.699219 11.875 -1.925781 10.25 -1.925781 C 6.214844 -1.925781 4.625 -6.179688 4.625 -9.433594 C 4.625 -11.617188 5.070312 -16.832031 8.066406 -16.832031 C 9.546875 -16.832031 10.210938 -15.464844 10.542969 -14.242188 C 10.691406 -13.835938 10.765625 -13.46875 10.878906 -13.132812 C 11.136719 -12.136719 11.765625 -11.542969 12.800781 -11.542969 C 13.835938 -11.542969 14.6875 -12.210938 14.6875 -13.207031 C 14.6875 -16.019531 11.46875 -17.425781 8.917969 -17.425781 C 3.367188 -17.425781 0.664062 -13.949219 0.664062 -8.507812 C 0.664062 -3.515625 3.183594 0.371094 8.363281 0.371094 Z M 8.363281 0.371094 "/></g></g></g><g fill="#d9d9d9" fill-opacity="1"><g transform="translate(677.873659, 163.037756)"><g><path d="M 0.257812 -24.046875 L 0.257812 -23.382812 C 1.515625 -23.308594 2.035156 -22.679688 2.035156 -21.347656 L 2.035156 -2.625 C 2.035156 -1.292969 1.515625 -0.664062 0.257812 -0.628906 L 0.257812 0 L 7.585938 0 L 7.585938 -0.628906 C 6.363281 -0.664062 5.84375 -1.292969 5.84375 -2.625 L 5.84375 -25.789062 Z M 0.257812 -24.046875 "/></g></g></g><g fill="#d9d9d9" fill-opacity="1"><g transform="translate(685.716821, 163.037756)"><g><path d="M 6.363281 0.332031 C 7.804688 0.332031 9.101562 -0.0351562 10.101562 -1.074219 L 10.359375 -1.292969 L 10.507812 -1 C 10.953125 -0.183594 11.765625 0.183594 12.691406 0.183594 C 13.984375 0.183594 15.132812 -0.183594 15.910156 -1.148438 L 15.613281 -1.515625 C 15.390625 -1.367188 15.132812 -1.257812 14.835938 -1.257812 C 14.355469 -1.257812 14.132812 -1.589844 14.058594 -1.886719 C 13.984375 -2.035156 13.984375 -2.21875 13.984375 -2.367188 C 13.984375 -2.515625 13.984375 -2.625 13.984375 -2.773438 L 13.984375 -12.136719 C 13.984375 -15.835938 11.582031 -17.425781 7.992188 -17.425781 C 5.070312 -17.425781 1.554688 -16.316406 1.554688 -13.023438 C 1.554688 -12.246094 2.554688 -11.875 3.402344 -11.875 C 4.292969 -11.875 5.363281 -12.28125 5.363281 -13.058594 C 5.363281 -14.578125 5.699219 -16.871094 7.917969 -16.871094 C 9.101562 -16.871094 9.65625 -16.167969 9.914062 -15.28125 C 10.175781 -14.613281 10.175781 -13.429688 10.175781 -12.691406 L 10.175781 -9.988281 L 9.804688 -10.136719 C 9.027344 -10.46875 8.140625 -10.582031 7.25 -10.582031 C 3.589844 -10.582031 0.628906 -8.507812 0.628906 -4.660156 C 0.628906 -1.367188 3.253906 0.332031 6.363281 0.332031 Z M 4.625 -4.515625 C 4.625 -7.105469 5.734375 -9.730469 8.804688 -9.730469 C 9.210938 -9.730469 9.621094 -9.691406 9.988281 -9.546875 L 10.175781 -9.472656 L 10.175781 -2.664062 C 10.175781 -1.292969 8.582031 -0.40625 7.472656 -0.40625 C 5.105469 -0.40625 4.625 -2.8125 4.625 -4.515625 Z M 4.625 -4.515625 "/></g></g></g><g fill="#d9d9d9" fill-opacity="1"><g transform="translate(701.958091, 163.037756)"><g><path d="M 0.445312 -15.207031 L 0.445312 -14.539062 C 1.703125 -14.464844 2.21875 -13.835938 2.21875 -12.503906 L 2.21875 -2.625 C 2.21875 -1.292969 1.703125 -0.664062 0.445312 -0.628906 L 0.445312 0 L 7.769531 0 L 7.769531 -0.628906 C 6.546875 -0.664062 6.03125 -1.292969 6.03125 -2.625 L 6.03125 -12.503906 C 6.03125 -14.023438 6.992188 -15.539062 8.695312 -15.539062 C 10.0625 -15.539062 10.617188 -14.761719 11.097656 -14.058594 C 11.210938 -13.910156 11.359375 -13.726562 11.46875 -13.578125 C 11.582031 -13.429688 11.726562 -13.28125 11.875 -13.171875 C 12.136719 -12.949219 12.46875 -12.800781 13.023438 -12.800781 C 14.023438 -12.800781 14.910156 -13.429688 14.910156 -14.429688 C 14.910156 -14.871094 14.726562 -15.316406 14.503906 -15.722656 C 13.761719 -16.980469 12.355469 -17.460938 10.914062 -17.460938 C 9.101562 -17.460938 7.4375 -16.6875 6.511719 -15.167969 L 6.03125 -14.355469 L 6.03125 -16.980469 Z M 0.445312 -15.207031 "/></g></g></g><g fill="#d9d9d9" fill-opacity="1"><g transform="translate(716.941496, 163.037756)"><g><path d="M 0.925781 -8.472656 C 0.925781 -3.550781 3.664062 0.371094 8.769531 0.371094 C 12.246094 0.371094 13.949219 -1.367188 15.429688 -4.253906 L 15.09375 -4.476562 C 13.984375 -2.996094 12.097656 -2.070312 10.285156 -2.070312 C 6.363281 -2.070312 4.921875 -6.179688 4.921875 -9.324219 L 4.921875 -9.839844 L 15.464844 -9.839844 L 15.464844 -9.953125 C 15.464844 -14.171875 12.914062 -17.425781 8.582031 -17.425781 C 3.550781 -17.425781 0.925781 -13.28125 0.925781 -8.472656 Z M 4.996094 -10.691406 C 5.144531 -12.46875 6.066406 -16.871094 8.398438 -16.871094 C 10.691406 -16.871094 11.433594 -12.429688 11.507812 -10.691406 L 11.507812 -10.433594 L 4.996094 -10.433594 Z M 4.996094 -10.691406 "/></g></g></g><g fill="#d9d9d9" fill-opacity="1"><g transform="translate(733.367749, 163.037756)"><g/></g></g><g fill="#d9d9d9" fill-opacity="1"><g transform="translate(740.544991, 163.037756)"><g><path d="M 0.40625 -15.207031 L 0.40625 -14.539062 C 1.664062 -14.464844 2.183594 -13.835938 2.183594 -12.503906 L 2.183594 -2.625 C 2.183594 -1.292969 1.664062 -0.664062 0.40625 -0.628906 L 0.40625 0 L 7.734375 0 L 7.734375 -0.628906 C 6.511719 -0.664062 5.992188 -1.292969 5.992188 -2.625 L 5.992188 -16.980469 Z M 0.925781 -21.457031 C 0.925781 -20.050781 2.070312 -18.867188 3.441406 -18.867188 C 4.773438 -18.867188 5.992188 -20.089844 5.992188 -21.457031 C 5.992188 -22.828125 4.808594 -23.972656 3.441406 -23.972656 C 2.070312 -23.972656 0.925781 -22.828125 0.925781 -21.457031 Z M 0.925781 -21.457031 "/></g></g></g><g fill="#d9d9d9" fill-opacity="1"><g transform="translate(748.46215, 163.037756)"><g><path d="M 0.296875 -15.207031 L 0.296875 -14.539062 C 1.554688 -14.464844 2.070312 -13.835938 2.070312 -12.503906 L 2.070312 -2.625 C 2.070312 -1.292969 1.554688 -0.664062 0.296875 -0.628906 L 0.296875 0 L 7.621094 0 L 7.621094 -0.628906 C 6.402344 -0.664062 5.882812 -1.292969 5.882812 -2.625 L 5.882812 -12.503906 C 5.882812 -14.28125 7.585938 -16.5 9.507812 -16.5 C 11.765625 -16.5 12.765625 -14.390625 12.765625 -12.503906 L 12.765625 -2.625 C 12.765625 -1.292969 12.246094 -0.664062 10.988281 -0.628906 L 10.988281 0 L 18.3125 0 L 18.3125 -0.628906 C 17.054688 -0.664062 16.574219 -1.292969 16.574219 -2.625 L 16.574219 -12.578125 C 16.574219 -15.910156 14.316406 -17.425781 11.136719 -17.425781 C 9.285156 -17.425781 7.4375 -16.945312 6.328125 -15.390625 L 5.882812 -14.726562 L 5.882812 -16.980469 Z M 0.296875 -15.207031 "/></g></g></g><g fill="#d9d9d9" fill-opacity="1"><g transform="translate(766.8122, 163.037756)"><g><path d="M -0.222656 -17.242188 L -0.222656 -16.613281 L 1.738281 -16.613281 L 1.738281 -3.21875 C 1.738281 -0.960938 2.960938 0.332031 5.214844 0.332031 C 6.882812 0.332031 8.140625 -0.371094 9.175781 -1.664062 L 8.84375 -2.070312 C 8.398438 -1.703125 7.804688 -1.40625 7.175781 -1.40625 C 5.917969 -1.40625 5.550781 -2.480469 5.550781 -3.441406 L 5.550781 -16.613281 L 8.992188 -16.613281 L 8.992188 -17.203125 L 5.550781 -17.203125 L 5.550781 -22.160156 C 4.367188 -20.015625 2.070312 -17.609375 -0.222656 -17.242188 Z M -0.222656 -17.242188 "/></g></g></g><g fill="#d9d9d9" fill-opacity="1"><g transform="translate(776.320192, 163.037756)"><g><path d="M 0.925781 -8.472656 C 0.925781 -3.550781 3.664062 0.371094 8.769531 0.371094 C 12.246094 0.371094 13.949219 -1.367188 15.429688 -4.253906 L 15.09375 -4.476562 C 13.984375 -2.996094 12.097656 -2.070312 10.285156 -2.070312 C 6.363281 -2.070312 4.921875 -6.179688 4.921875 -9.324219 L 4.921875 -9.839844 L 15.464844 -9.839844 L 15.464844 -9.953125 C 15.464844 -14.171875 12.914062 -17.425781 8.582031 -17.425781 C 3.550781 -17.425781 0.925781 -13.28125 0.925781 -8.472656 Z M 4.996094 -10.691406 C 5.144531 -12.46875 6.066406 -16.871094 8.398438 -16.871094 C 10.691406 -16.871094 11.433594 -12.429688 11.507812 -10.691406 L 11.507812 -10.433594 L 4.996094 -10.433594 Z M 4.996094 -10.691406 "/></g></g></g><g fill="#d9d9d9" fill-opacity="1"><g transform="translate(792.746444, 163.037756)"><g><path d="M 0.445312 -15.207031 L 0.445312 -14.539062 C 1.703125 -14.464844 2.21875 -13.835938 2.21875 -12.503906 L 2.21875 -2.625 C 2.21875 -1.292969 1.703125 -0.664062 0.445312 -0.628906 L 0.445312 0 L 7.769531 0 L 7.769531 -0.628906 C 6.546875 -0.664062 6.03125 -1.292969 6.03125 -2.625 L 6.03125 -12.503906 C 6.03125 -14.023438 6.992188 -15.539062 8.695312 -15.539062 C 10.0625 -15.539062 10.617188 -14.761719 11.097656 -14.058594 C 11.210938 -13.910156 11.359375 -13.726562 11.46875 -13.578125 C 11.582031 -13.429688 11.726562 -13.28125 11.875 -13.171875 C 12.136719 -12.949219 12.46875 -12.800781 13.023438 -12.800781 C 14.023438 -12.800781 14.910156 -13.429688 14.910156 -14.429688 C 14.910156 -14.871094 14.726562 -15.316406 14.503906 -15.722656 C 13.761719 -16.980469 12.355469 -17.460938 10.914062 -17.460938 C 9.101562 -17.460938 7.4375 -16.6875 6.511719 -15.167969 L 6.03125 -14.355469 L 6.03125 -16.980469 Z M 0.445312 -15.207031 "/></g></g></g><g fill="#d9d9d9" fill-opacity="1"><g transform="translate(807.729849, 163.037756)"><g><path d="M 2.109375 -16.613281 L 2.109375 -2.625 C 2.109375 -1.292969 1.589844 -0.664062 0.332031 -0.628906 L 0.332031 0 L 7.660156 0 L 7.660156 -0.628906 C 6.4375 -0.664062 5.917969 -1.292969 5.917969 -2.625 L 5.917969 -16.613281 L 9.878906 -16.613281 L 9.878906 -17.203125 L 5.917969 -17.203125 L 5.917969 -20.164062 C 5.917969 -20.644531 5.882812 -21.644531 6.066406 -22.53125 C 6.214844 -23.382812 6.585938 -24.382812 7.511719 -24.382812 C 8.101562 -24.382812 8.507812 -24.085938 8.804688 -23.679688 C 8.953125 -23.492188 9.101562 -23.234375 9.25 -23.011719 C 9.359375 -22.789062 9.472656 -22.53125 9.621094 -22.273438 C 10.136719 -21.3125 10.691406 -20.460938 11.800781 -20.460938 C 12.839844 -20.460938 13.761719 -21.050781 13.761719 -22.050781 C 13.761719 -22.273438 13.6875 -22.496094 13.613281 -22.714844 C 12.984375 -24.566406 10.65625 -25.121094 8.769531 -25.121094 C 5.179688 -25.121094 2.109375 -23.308594 2.109375 -19.421875 L 2.109375 -17.203125 L 0.109375 -17.203125 L 0.109375 -16.613281 Z M 2.109375 -16.613281 "/></g></g></g><g fill="#d9d9d9" fill-opacity="1"><g transform="translate(817.792776, 163.037756)"><g><path d="M 6.363281 0.332031 C 7.804688 0.332031 9.101562 -0.0351562 10.101562 -1.074219 L 10.359375 -1.292969 L 10.507812 -1 C 10.953125 -0.183594 11.765625 0.183594 12.691406 0.183594 C 13.984375 0.183594 15.132812 -0.183594 15.910156 -1.148438 L 15.613281 -1.515625 C 15.390625 -1.367188 15.132812 -1.257812 14.835938 -1.257812 C 14.355469 -1.257812 14.132812 -1.589844 14.058594 -1.886719 C 13.984375 -2.035156 13.984375 -2.21875 13.984375 -2.367188 C 13.984375 -2.515625 13.984375 -2.625 13.984375 -2.773438 L 13.984375 -12.136719 C 13.984375 -15.835938 11.582031 -17.425781 7.992188 -17.425781 C 5.070312 -17.425781 1.554688 -16.316406 1.554688 -13.023438 C 1.554688 -12.246094 2.554688 -11.875 3.402344 -11.875 C 4.292969 -11.875 5.363281 -12.28125 5.363281 -13.058594 C 5.363281 -14.578125 5.699219 -16.871094 7.917969 -16.871094 C 9.101562 -16.871094 9.65625 -16.167969 9.914062 -15.28125 C 10.175781 -14.613281 10.175781 -13.429688 10.175781 -12.691406 L 10.175781 -9.988281 L 9.804688 -10.136719 C 9.027344 -10.46875 8.140625 -10.582031 7.25 -10.582031 C 3.589844 -10.582031 0.628906 -8.507812 0.628906 -4.660156 C 0.628906 -1.367188 3.253906 0.332031 6.363281 0.332031 Z M 4.625 -4.515625 C 4.625 -7.105469 5.734375 -9.730469 8.804688 -9.730469 C 9.210938 -9.730469 9.621094 -9.691406 9.988281 -9.546875 L 10.175781 -9.472656 L 10.175781 -2.664062 C 10.175781 -1.292969 8.582031 -0.40625 7.472656 -0.40625 C 5.105469 -0.40625 4.625 -2.8125 4.625 -4.515625 Z M 4.625 -4.515625 "/></g></g></g><g fill="#d9d9d9" fill-opacity="1"><g transform="translate(834.034046, 163.037756)"><g><path d="M 8.363281 0.371094 C 11.582031 0.371094 13.503906 -1.074219 14.910156 -3.8125 L 14.503906 -4.070312 C 13.542969 -2.699219 11.875 -1.925781 10.25 -1.925781 C 6.214844 -1.925781 4.625 -6.179688 4.625 -9.433594 C 4.625 -11.617188 5.070312 -16.832031 8.066406 -16.832031 C 9.546875 -16.832031 10.210938 -15.464844 10.542969 -14.242188 C 10.691406 -13.835938 10.765625 -13.46875 10.878906 -13.132812 C 11.136719 -12.136719 11.765625 -11.542969 12.800781 -11.542969 C 13.835938 -11.542969 14.6875 -12.210938 14.6875 -13.207031 C 14.6875 -16.019531 11.46875 -17.425781 8.917969 -17.425781 C 3.367188 -17.425781 0.664062 -13.949219 0.664062 -8.507812 C 0.664062 -3.515625 3.183594 0.371094 8.363281 0.371094 Z M 8.363281 0.371094 "/></g></g></g><g fill="#d9d9d9" fill-opacity="1"><g transform="translate(849.572398, 163.037756)"><g><path d="M 0.925781 -8.472656 C 0.925781 -3.550781 3.664062 0.371094 8.769531 0.371094 C 12.246094 0.371094 13.949219 -1.367188 15.429688 -4.253906 L 15.09375 -4.476562 C 13.984375 -2.996094 12.097656 -2.070312 10.285156 -2.070312 C 6.363281 -2.070312 4.921875 -6.179688 4.921875 -9.324219 L 4.921875 -9.839844 L 15.464844 -9.839844 L 15.464844 -9.953125 C 15.464844 -14.171875 12.914062 -17.425781 8.582031 -17.425781 C 3.550781 -17.425781 0.925781 -13.28125 0.925781 -8.472656 Z M 4.996094 -10.691406 C 5.144531 -12.46875 6.066406 -16.871094 8.398438 -16.871094 C 10.691406 -16.871094 11.433594 -12.429688 11.507812 -10.691406 L 11.507812 -10.433594 L 4.996094 -10.433594 Z M 4.996094 -10.691406 "/></g></g></g><g fill="#d9d9d9" fill-opacity="1"><g transform="translate(873.175881, 163.037756)"><g><path d="M 0.960938 -16.945312 C 2.480469 -20.273438 4.253906 -23.382812 8.324219 -23.382812 L 9.359375 -23.382812 L 9.359375 -2.625 C 9.359375 -1.183594 8.363281 -0.664062 7.214844 -0.59375 L 7.214844 0 L 15.28125 0 L 15.28125 -0.59375 C 14.132812 -0.664062 13.171875 -1.183594 13.171875 -2.625 L 13.171875 -23.382812 L 14.171875 -23.382812 C 18.386719 -23.382812 20.347656 -20.460938 21.976562 -16.945312 L 22.605469 -16.980469 L 21.050781 -23.972656 L 1.8125 -23.972656 L 0.371094 -16.980469 Z M 0.960938 -16.945312 "/></g></g></g><g fill="#d9d9d9" fill-opacity="1"><g transform="translate(895.743491, 163.037756)"><g><path d="M 0.925781 -8.472656 C 0.925781 -3.550781 3.664062 0.371094 8.769531 0.371094 C 12.246094 0.371094 13.949219 -1.367188 15.429688 -4.253906 L 15.09375 -4.476562 C 13.984375 -2.996094 12.097656 -2.070312 10.285156 -2.070312 C 6.363281 -2.070312 4.921875 -6.179688 4.921875 -9.324219 L 4.921875 -9.839844 L 15.464844 -9.839844 L 15.464844 -9.953125 C 15.464844 -14.171875 12.914062 -17.425781 8.582031 -17.425781 C 3.550781 -17.425781 0.925781 -13.28125 0.925781 -8.472656 Z M 4.996094 -10.691406 C 5.144531 -12.46875 6.066406 -16.871094 8.398438 -16.871094 C 10.691406 -16.871094 11.433594 -12.429688 11.507812 -10.691406 L 11.507812 -10.433594 L 4.996094 -10.433594 Z M 4.996094 -10.691406 "/></g></g></g><g fill="#d9d9d9" fill-opacity="1"><g transform="translate(912.169743, 163.037756)"><g><path d="M 0.296875 -15.207031 L 0.296875 -14.539062 C 1.554688 -14.464844 2.070312 -13.835938 2.070312 -12.503906 L 2.070312 -2.625 C 2.070312 -1.292969 1.554688 -0.664062 0.296875 -0.628906 L 0.296875 0 L 7.621094 0 L 7.621094 -0.628906 C 6.402344 -0.664062 5.882812 -1.292969 5.882812 -2.625 L 5.882812 -12.503906 C 5.882812 -14.28125 7.105469 -16.5 9.210938 -16.5 C 11.765625 -16.5 12.46875 -14.652344 12.46875 -12.503906 L 12.46875 -2.625 C 12.46875 -1.292969 11.988281 -0.664062 10.730469 -0.628906 L 10.730469 0 L 18.054688 0 L 18.054688 -0.628906 C 16.796875 -0.664062 16.277344 -1.292969 16.277344 -2.625 L 16.277344 -12.578125 C 16.277344 -14.390625 17.757812 -16.5 19.757812 -16.5 C 22.050781 -16.5 22.902344 -14.355469 22.902344 -12.503906 L 22.902344 -2.625 C 22.902344 -1.292969 22.382812 -0.664062 21.164062 -0.628906 L 21.164062 0 L 28.488281 0 L 28.488281 -0.628906 C 27.230469 -0.664062 26.710938 -1.292969 26.710938 -2.625 L 26.710938 -12.578125 C 26.710938 -15.910156 24.75 -17.425781 21.53125 -17.425781 C 19.496094 -17.425781 17.5 -16.648438 16.277344 -14.984375 L 16.019531 -14.652344 L 15.835938 -15.019531 C 14.945312 -16.90625 12.914062 -17.425781 10.878906 -17.425781 C 9.210938 -17.425781 7.546875 -16.90625 6.289062 -15.761719 L 5.882812 -15.390625 L 5.882812 -16.980469 Z M 0.296875 -15.207031 "/></g></g></g><g fill="#d9d9d9" fill-opacity="1"><g transform="translate(940.915697, 163.037756)"><g><path d="M 0.257812 -15.574219 L 0.257812 -14.910156 C 1.515625 -14.835938 2.035156 -14.207031 2.035156 -12.875 L 2.035156 5.808594 C 2.035156 7.140625 1.515625 7.804688 0.257812 7.84375 L 0.257812 8.472656 L 7.585938 8.472656 L 7.585938 7.84375 C 6.363281 7.804688 5.84375 7.140625 5.84375 5.808594 L 5.84375 -1.441406 L 6.289062 -0.960938 C 7.066406 -0.148438 8.507812 0 9.691406 0 C 15.058594 0 17.09375 -3.8125 17.09375 -8.878906 C 17.09375 -13.28125 15.539062 -17.425781 10.691406 -17.425781 C 8.992188 -17.425781 7.175781 -16.796875 6.328125 -15.316406 L 5.84375 -14.464844 L 5.84375 -17.351562 Z M 5.84375 -13.613281 C 5.84375 -13.652344 5.84375 -13.726562 5.882812 -13.800781 C 5.882812 -13.800781 5.882812 -13.835938 5.917969 -13.875 C 5.957031 -13.949219 5.992188 -14.023438 6.03125 -14.132812 C 6.140625 -14.28125 6.253906 -14.464844 6.253906 -14.464844 C 6.882812 -15.464844 7.917969 -16.351562 9.210938 -16.351562 C 12.578125 -16.351562 13.058594 -11.765625 13.058594 -9.546875 C 13.058594 -6.882812 12.171875 -0.628906 8.582031 -0.628906 C 7.4375 -0.628906 6.472656 -1.40625 5.992188 -2.40625 C 5.992188 -2.480469 5.957031 -2.515625 5.917969 -2.589844 C 5.882812 -2.664062 5.84375 -2.773438 5.84375 -2.921875 Z M 5.84375 -13.613281 "/></g></g></g><g fill="#d9d9d9" fill-opacity="1"><g transform="translate(959.006768, 163.037756)"><g><path d="M 0.257812 -24.046875 L 0.257812 -23.382812 C 1.515625 -23.308594 2.035156 -22.679688 2.035156 -21.347656 L 2.035156 -2.625 C 2.035156 -1.292969 1.515625 -0.664062 0.257812 -0.628906 L 0.257812 0 L 7.585938 0 L 7.585938 -0.628906 C 6.363281 -0.664062 5.84375 -1.292969 5.84375 -2.625 L 5.84375 -25.789062 Z M 0.257812 -24.046875 "/></g></g></g><g fill="#d9d9d9" fill-opacity="1"><g transform="translate(966.849929, 163.037756)"><g><path d="M 6.363281 0.332031 C 7.804688 0.332031 9.101562 -0.0351562 10.101562 -1.074219 L 10.359375 -1.292969 L 10.507812 -1 C 10.953125 -0.183594 11.765625 0.183594 12.691406 0.183594 C 13.984375 0.183594 15.132812 -0.183594 15.910156 -1.148438 L 15.613281 -1.515625 C 15.390625 -1.367188 15.132812 -1.257812 14.835938 -1.257812 C 14.355469 -1.257812 14.132812 -1.589844 14.058594 -1.886719 C 13.984375 -2.035156 13.984375 -2.21875 13.984375 -2.367188 C 13.984375 -2.515625 13.984375 -2.625 13.984375 -2.773438 L 13.984375 -12.136719 C 13.984375 -15.835938 11.582031 -17.425781 7.992188 -17.425781 C 5.070312 -17.425781 1.554688 -16.316406 1.554688 -13.023438 C 1.554688 -12.246094 2.554688 -11.875 3.402344 -11.875 C 4.292969 -11.875 5.363281 -12.28125 5.363281 -13.058594 C 5.363281 -14.578125 5.699219 -16.871094 7.917969 -16.871094 C 9.101562 -16.871094 9.65625 -16.167969 9.914062 -15.28125 C 10.175781 -14.613281 10.175781 -13.429688 10.175781 -12.691406 L 10.175781 -9.988281 L 9.804688 -10.136719 C 9.027344 -10.46875 8.140625 -10.582031 7.25 -10.582031 C 3.589844 -10.582031 0.628906 -8.507812 0.628906 -4.660156 C 0.628906 -1.367188 3.253906 0.332031 6.363281 0.332031 Z M 4.625 -4.515625 C 4.625 -7.105469 5.734375 -9.730469 8.804688 -9.730469 C 9.210938 -9.730469 9.621094 -9.691406 9.988281 -9.546875 L 10.175781 -9.472656 L 10.175781 -2.664062 C 10.175781 -1.292969 8.582031 -0.40625 7.472656 -0.40625 C 5.105469 -0.40625 4.625 -2.8125 4.625 -4.515625 Z M 4.625 -4.515625 "/></g></g></g><g fill="#d9d9d9" fill-opacity="1"><g transform="translate(983.0912, 163.037756)"><g><path d="M -0.222656 -17.242188 L -0.222656 -16.613281 L 1.738281 -16.613281 L 1.738281 -3.21875 C 1.738281 -0.960938 2.960938 0.332031 5.214844 0.332031 C 6.882812 0.332031 8.140625 -0.371094 9.175781 -1.664062 L 8.84375 -2.070312 C 8.398438 -1.703125 7.804688 -1.40625 7.175781 -1.40625 C 5.917969 -1.40625 5.550781 -2.480469 5.550781 -3.441406 L 5.550781 -16.613281 L 8.992188 -16.613281 L 8.992188 -17.203125 L 5.550781 -17.203125 L 5.550781 -22.160156 C 4.367188 -20.015625 2.070312 -17.609375 -0.222656 -17.242188 Z M -0.222656 -17.242188 "/></g></g></g><g fill="#d9d9d9" fill-opacity="1"><g transform="translate(992.599179, 163.037756)"><g><path d="M 0.925781 -8.472656 C 0.925781 -3.550781 3.664062 0.371094 8.769531 0.371094 C 12.246094 0.371094 13.949219 -1.367188 15.429688 -4.253906 L 15.09375 -4.476562 C 13.984375 -2.996094 12.097656 -2.070312 10.285156 -2.070312 C 6.363281 -2.070312 4.921875 -6.179688 4.921875 -9.324219 L 4.921875 -9.839844 L 15.464844 -9.839844 L 15.464844 -9.953125 C 15.464844 -14.171875 12.914062 -17.425781 8.582031 -17.425781 C 3.550781 -17.425781 0.925781 -13.28125 0.925781 -8.472656 Z M 4.996094 -10.691406 C 5.144531 -12.46875 6.066406 -16.871094 8.398438 -16.871094 C 10.691406 -16.871094 11.433594 -12.429688 11.507812 -10.691406 L 11.507812 -10.433594 L 4.996094 -10.433594 Z M 4.996094 -10.691406 "/></g></g></g><g fill="#d9d9d9" fill-opacity="1"><g transform="translate(1009.025432, 163.037756)"><g/></g></g><g fill="#d9d9d9" fill-opacity="1"><g transform="translate(1016.202662, 163.037756)"><g><path d="M 0.445312 0 L 7.804688 0 L 7.804688 -0.59375 C 6.105469 -0.664062 4.070312 -1.183594 4.070312 -3.515625 L 4.070312 -21.199219 L 19.238281 0 L 19.941406 0 L 19.941406 -20.460938 C 19.941406 -22.679688 21.3125 -23.308594 23.085938 -23.382812 L 23.085938 -23.972656 L 15.613281 -23.972656 L 15.613281 -23.382812 C 17.316406 -23.308594 19.351562 -22.789062 19.351562 -20.460938 L 19.351562 -6.402344 L 6.808594 -23.972656 L 0.738281 -23.972656 L 0.738281 -23.34375 C 1.777344 -23.269531 2.699219 -22.714844 3.402344 -22.011719 L 3.476562 -21.941406 L 3.476562 -3.515625 C 3.476562 -1.332031 2.257812 -0.664062 0.445312 -0.59375 Z M 0.445312 0 "/></g></g></g><g fill="#d9d9d9" fill-opacity="1"><g transform="translate(1039.399194, 163.037756)"><g><path d="M 8.804688 0.371094 C 14.171875 0.371094 16.761719 -3.441406 16.761719 -8.621094 C 16.761719 -13.835938 14.171875 -17.425781 8.804688 -17.425781 C 3.476562 -17.425781 0.886719 -13.800781 0.886719 -8.621094 C 0.886719 -3.441406 3.441406 0.371094 8.804688 0.371094 Z M 4.921875 -8.621094 C 4.921875 -11.210938 5.179688 -16.945312 8.804688 -16.945312 C 12.503906 -16.945312 12.726562 -11.246094 12.726562 -8.621094 C 12.726562 -6.03125 12.429688 -0.109375 8.804688 -0.109375 C 5.214844 -0.109375 4.921875 -6.066406 4.921875 -8.621094 Z M 4.921875 -8.621094 "/></g></g></g><g fill="#d9d9d9" fill-opacity="1"><g transform="translate(1056.824333, 163.037756)"><g><path d="M 7.25 -0.0351562 C 8.84375 -0.0351562 10.542969 -0.59375 11.46875 -1.886719 L 11.949219 -2.554688 L 11.949219 -0.109375 L 17.535156 -1.851562 L 17.535156 -2.554688 C 16.277344 -2.589844 15.761719 -3.253906 15.761719 -4.585938 L 15.761719 -25.789062 L 10.210938 -24.046875 L 10.210938 -23.382812 C 11.433594 -23.308594 11.949219 -22.640625 11.949219 -21.347656 L 11.949219 -16.277344 L 11.542969 -16.648438 C 10.730469 -17.316406 9.398438 -17.460938 8.289062 -17.460938 C 2.921875 -17.460938 0.886719 -13.6875 0.886719 -8.621094 C 0.886719 -4.21875 2.441406 -0.0351562 7.25 -0.0351562 Z M 9.359375 -16.832031 C 10.359375 -16.832031 11.171875 -16.316406 11.726562 -15.539062 C 11.726562 -15.5 11.800781 -15.390625 11.839844 -15.390625 C 11.914062 -15.28125 11.949219 -15.167969 11.949219 -15.019531 L 11.949219 -3.476562 C 11.949219 -3.328125 11.875 -3.21875 11.839844 -3.144531 C 11.800781 -3.109375 11.765625 -3.070312 11.726562 -2.996094 C 11.097656 -2.035156 10.027344 -1.148438 8.769531 -1.148438 C 5.402344 -1.148438 4.921875 -5.734375 4.921875 -7.917969 C 4.921875 -10.582031 5.808594 -16.832031 9.359375 -16.832031 Z M 9.359375 -16.832031 "/></g></g></g><g fill="#d9d9d9" fill-opacity="1"><g transform="translate(1074.397467, 163.037756)"><g><path d="M 0.925781 -8.472656 C 0.925781 -3.550781 3.664062 0.371094 8.769531 0.371094 C 12.246094 0.371094 13.949219 -1.367188 15.429688 -4.253906 L 15.09375 -4.476562 C 13.984375 -2.996094 12.097656 -2.070312 10.285156 -2.070312 C 6.363281 -2.070312 4.921875 -6.179688 4.921875 -9.324219 L 4.921875 -9.839844 L 15.464844 -9.839844 L 15.464844 -9.953125 C 15.464844 -14.171875 12.914062 -17.425781 8.582031 -17.425781 C 3.550781 -17.425781 0.925781 -13.28125 0.925781 -8.472656 Z M 4.996094 -10.691406 C 5.144531 -12.46875 6.066406 -16.871094 8.398438 -16.871094 C 10.691406 -16.871094 11.433594 -12.429688 11.507812 -10.691406 L 11.507812 -10.433594 L 4.996094 -10.433594 Z M 4.996094 -10.691406 "/></g></g></g><g fill="#d9d9d9" fill-opacity="1"><g transform="translate(1090.82372, 163.037756)"><g><path d="M 0.371094 -1.367188 C 1.480469 -0.257812 2.738281 0.183594 4.328125 0.183594 C 7.769531 0.183594 9.433594 -1.589844 9.433594 -5.070312 L 9.433594 -21.347656 C 9.433594 -22.789062 10.394531 -23.308594 11.542969 -23.382812 L 11.542969 -23.972656 L 3.476562 -23.972656 L 3.476562 -23.382812 C 4.625 -23.308594 5.625 -22.789062 5.625 -21.347656 L 5.625 -4.070312 C 5.625 -2.554688 4.847656 -0.925781 2.996094 -0.925781 C 2.183594 -0.925781 1.40625 -1.222656 0.851562 -1.777344 Z M 0.371094 -1.367188 "/></g></g></g><g fill="#d9d9d9" fill-opacity="1"><g transform="translate(1102.773456, 163.037756)"><g><path d="M 0.59375 -2.8125 C 0.59375 -2.773438 0.628906 -2.699219 0.703125 -2.625 C 0.8125 -2.480469 0.925781 -2.367188 0.960938 -2.292969 C 2.8125 -0.480469 6.4375 0.371094 8.953125 0.371094 C 12.210938 0.371094 15.871094 -0.445312 17.277344 -3.625 C 17.609375 -4.328125 17.796875 -5.179688 17.796875 -5.957031 C 17.796875 -9.582031 14.6875 -11.433594 11.359375 -13.207031 C 10.542969 -13.652344 9.730469 -14.058594 8.953125 -14.539062 C 6.84375 -15.722656 4.660156 -17.316406 4.660156 -20.015625 C 4.660156 -22.496094 6.511719 -23.863281 8.769531 -23.863281 C 12.246094 -23.863281 15.132812 -19.867188 16.242188 -16.980469 L 16.90625 -16.980469 L 16.277344 -22.125 C 16.242188 -22.234375 16.203125 -22.273438 16.167969 -22.308594 C 16.058594 -22.421875 15.945312 -22.53125 15.910156 -22.570312 C 14.429688 -23.863281 11.246094 -24.382812 9.25 -24.382812 C 5.179688 -24.382812 1.035156 -22.347656 1.035156 -17.832031 C 1.035156 -14.207031 4.144531 -12.320312 7.398438 -10.617188 C 8.214844 -10.175781 9.027344 -9.765625 9.804688 -9.324219 C 11.765625 -8.289062 14.058594 -6.734375 14.058594 -4.253906 C 14.058594 -1.738281 12.023438 -0.183594 9.691406 -0.183594 C 5.808594 -0.183594 2.292969 -4.105469 1.777344 -7.804688 L 1.222656 -7.878906 L 0.554688 -2.886719 C 0.554688 -2.847656 0.554688 -2.847656 0.59375 -2.8125 Z M 0.59375 -2.8125 "/></g></g></g><g fill="#d9d9d9" fill-opacity="1"><g transform="translate(1120.864504, 163.037756)"><g/></g></g><g fill="#d9d9d9" fill-opacity="1"><g transform="translate(1128.041734, 163.037756)"><g><path d="M 0.886719 -11.914062 L 0.886719 -9.210938 L 9.25 -4.996094 L 9.25 -5.992188 L 2.625 -10.65625 L 9.25 -15.316406 L 9.25 -16.277344 Z M 0.886719 -11.914062 "/></g></g></g><g fill="#d9d9d9" fill-opacity="1"><g transform="translate(1138.5486, 163.037756)"><g><path d="M 0.960938 -16.945312 C 2.480469 -20.273438 4.253906 -23.382812 8.324219 -23.382812 L 9.359375 -23.382812 L 9.359375 -2.625 C 9.359375 -1.183594 8.363281 -0.664062 7.214844 -0.59375 L 7.214844 0 L 15.28125 0 L 15.28125 -0.59375 C 14.132812 -0.664062 13.171875 -1.183594 13.171875 -2.625 L 13.171875 -23.382812 L 14.171875 -23.382812 C 18.386719 -23.382812 20.347656 -20.460938 21.976562 -16.945312 L 22.605469 -16.980469 L 21.050781 -23.972656 L 1.8125 -23.972656 L 0.371094 -16.980469 Z M 0.960938 -16.945312 "/></g></g></g><g fill="#d9d9d9" fill-opacity="1"><g transform="translate(1161.11621, 163.037756)"><g><path d="M 1.628906 -5.992188 L 1.628906 -4.996094 L 9.988281 -9.359375 L 9.988281 -12.0625 L 1.628906 -16.316406 L 1.628906 -15.316406 L 8.25 -10.65625 Z M 1.628906 -5.992188 "/></g></g></g><g fill="#d9d9d9" fill-opacity="1"><g transform="translate(750.632786, 207.287753)"><g><path d="M 0.726562 -6.640625 C 0.726562 -2.785156 2.871094 0.289062 6.871094 0.289062 C 9.597656 0.289062 10.929688 -1.074219 12.089844 -3.335938 L 11.828125 -3.507812 C 10.960938 -2.347656 9.480469 -1.625 8.0625 -1.625 C 4.988281 -1.625 3.855469 -4.84375 3.855469 -7.308594 L 3.855469 -7.710938 L 12.121094 -7.710938 L 12.121094 -7.800781 C 12.121094 -11.105469 10.121094 -13.65625 6.726562 -13.65625 C 2.785156 -13.65625 0.726562 -10.410156 0.726562 -6.640625 Z M 3.914062 -8.378906 C 4.03125 -9.769531 4.753906 -13.222656 6.582031 -13.222656 C 8.378906 -13.222656 8.960938 -9.742188 9.015625 -8.378906 L 9.015625 -8.175781 L 3.914062 -8.175781 Z M 3.914062 -8.378906 "/></g></g></g><g fill="#d9d9d9" fill-opacity="1"><g transform="translate(763.505317, 207.287753)"><g><path d="M 0.289062 -13.019531 C 1.332031 -12.902344 2.03125 -12.089844 2.550781 -11.335938 L 6.234375 -5.945312 L 3.710938 -2.753906 C 2.988281 -1.855469 1.652344 -0.609375 0.347656 -0.492188 L 0.347656 0 L 5.507812 0 L 5.507812 -0.492188 C 4.871094 -0.523438 4 -0.78125 4 -1.710938 C 4 -2 4.089844 -2.261719 4.261719 -2.492188 L 6.523438 -5.507812 L 8.785156 -2.203125 C 8.960938 -1.941406 9.105469 -1.59375 9.105469 -1.246094 C 9.105469 -0.78125 8.785156 -0.550781 8.4375 -0.492188 L 8.4375 0 L 14.671875 0 L 14.671875 -0.492188 C 13.628906 -0.578125 12.933594 -1.421875 12.4375 -2.175781 L 8.582031 -7.800781 L 10.902344 -10.757812 C 11.597656 -11.65625 12.960938 -12.875 14.265625 -13.019531 L 14.265625 -13.484375 L 9.105469 -13.484375 L 9.105469 -13.019531 C 9.742188 -12.960938 10.613281 -12.730469 10.613281 -11.800781 C 10.613281 -11.511719 10.523438 -11.222656 10.351562 -10.988281 L 8.292969 -8.234375 L 6.175781 -11.308594 C 6.03125 -11.539062 5.855469 -11.886719 5.855469 -12.234375 C 5.855469 -12.730469 6.175781 -12.960938 6.523438 -13.019531 L 6.523438 -13.484375 L 0.289062 -13.484375 Z M 0.289062 -13.019531 "/></g></g></g><g fill="#d9d9d9" fill-opacity="1"><g transform="translate(778.291322, 207.287753)"><g><path d="M -0.175781 -13.511719 L -0.175781 -13.019531 L 1.363281 -13.019531 L 1.363281 -2.523438 C 1.363281 -0.753906 2.320312 0.261719 4.089844 0.261719 C 5.394531 0.261719 6.378906 -0.289062 7.191406 -1.304688 L 6.929688 -1.625 C 6.582031 -1.332031 6.117188 -1.101562 5.625 -1.101562 C 4.640625 -1.101562 4.347656 -1.941406 4.347656 -2.695312 L 4.347656 -13.019531 L 7.046875 -13.019531 L 7.046875 -13.484375 L 4.347656 -13.484375 L 4.347656 -17.367188 C 3.421875 -15.6875 1.625 -13.800781 -0.175781 -13.511719 Z M -0.175781 -13.511719 "/></g></g></g><g fill="#d9d9d9" fill-opacity="1"><g transform="translate(785.742307, 207.287753)"><g><path d="M 0.726562 -6.640625 C 0.726562 -2.785156 2.871094 0.289062 6.871094 0.289062 C 9.597656 0.289062 10.929688 -1.074219 12.089844 -3.335938 L 11.828125 -3.507812 C 10.960938 -2.347656 9.480469 -1.625 8.0625 -1.625 C 4.988281 -1.625 3.855469 -4.84375 3.855469 -7.308594 L 3.855469 -7.710938 L 12.121094 -7.710938 L 12.121094 -7.800781 C 12.121094 -11.105469 10.121094 -13.65625 6.726562 -13.65625 C 2.785156 -13.65625 0.726562 -10.410156 0.726562 -6.640625 Z M 3.914062 -8.378906 C 4.03125 -9.769531 4.753906 -13.222656 6.582031 -13.222656 C 8.378906 -13.222656 8.960938 -9.742188 9.015625 -8.378906 L 9.015625 -8.175781 L 3.914062 -8.175781 Z M 3.914062 -8.378906 "/></g></g></g><g fill="#d9d9d9" fill-opacity="1"><g transform="translate(798.614838, 207.287753)"><g><path d="M 0.230469 -11.917969 L 0.230469 -11.394531 C 1.21875 -11.335938 1.625 -10.84375 1.625 -9.800781 L 1.625 -2.058594 C 1.625 -1.015625 1.21875 -0.523438 0.230469 -0.492188 L 0.230469 0 L 5.972656 0 L 5.972656 -0.492188 C 5.015625 -0.523438 4.609375 -1.015625 4.609375 -2.058594 L 4.609375 -9.800781 C 4.609375 -11.191406 5.945312 -12.933594 7.453125 -12.933594 C 9.21875 -12.933594 10.003906 -11.277344 10.003906 -9.800781 L 10.003906 -2.058594 C 10.003906 -1.015625 9.597656 -0.523438 8.613281 -0.492188 L 8.613281 0 L 14.351562 0 L 14.351562 -0.492188 C 13.367188 -0.523438 12.988281 -1.015625 12.988281 -2.058594 L 12.988281 -9.859375 C 12.988281 -12.46875 11.222656 -13.65625 8.726562 -13.65625 C 7.277344 -13.65625 5.828125 -13.28125 4.957031 -12.0625 L 4.609375 -11.539062 L 4.609375 -13.308594 Z M 0.230469 -11.917969 "/></g></g></g><g fill="#d9d9d9" fill-opacity="1"><g transform="translate(812.994956, 207.287753)"><g><path d="M 5.683594 -0.0273438 C 6.929688 -0.0273438 8.261719 -0.464844 8.988281 -1.480469 L 9.367188 -2 L 9.367188 -0.0859375 L 13.742188 -1.449219 L 13.742188 -2 C 12.757812 -2.03125 12.351562 -2.550781 12.351562 -3.59375 L 12.351562 -20.210938 L 8.003906 -18.847656 L 8.003906 -18.324219 C 8.960938 -18.265625 9.367188 -17.746094 9.367188 -16.730469 L 9.367188 -12.757812 L 9.046875 -13.046875 C 8.410156 -13.570312 7.363281 -13.6875 6.496094 -13.6875 C 2.289062 -13.6875 0.695312 -10.726562 0.695312 -6.753906 C 0.695312 -3.304688 1.914062 -0.0273438 5.683594 -0.0273438 Z M 7.335938 -13.191406 C 8.117188 -13.191406 8.757812 -12.785156 9.191406 -12.179688 C 9.191406 -12.148438 9.25 -12.0625 9.277344 -12.0625 C 9.335938 -11.976562 9.367188 -11.886719 9.367188 -11.773438 L 9.367188 -2.726562 C 9.367188 -2.609375 9.308594 -2.523438 9.277344 -2.464844 C 9.25 -2.4375 9.21875 -2.40625 9.191406 -2.347656 C 8.699219 -1.59375 7.859375 -0.898438 6.871094 -0.898438 C 4.234375 -0.898438 3.855469 -4.496094 3.855469 -6.203125 C 3.855469 -8.292969 4.550781 -13.191406 7.335938 -13.191406 Z M 7.335938 -13.191406 "/></g></g></g><g fill="#d9d9d9" fill-opacity="1"><g transform="translate(826.766237, 207.287753)"><g><path d="M 0.609375 -1.449219 C 1.882812 -0.175781 3.855469 0.289062 5.625 0.289062 C 7.507812 0.289062 9.597656 -0.261719 10.554688 -1.914062 C 10.84375 -2.378906 11.019531 -2.957031 11.019531 -3.480469 C 11.019531 -5.449219 9.335938 -6.4375 7.480469 -7.453125 C 7.015625 -7.710938 6.554688 -7.945312 6.117188 -8.207031 C 4.957031 -8.902344 3.710938 -9.859375 3.710938 -11.367188 C 3.710938 -12.496094 4.550781 -13.222656 5.625 -13.222656 C 7.539062 -13.222656 9.335938 -11.019531 10.03125 -9.453125 L 10.4375 -9.453125 L 10.4375 -11.597656 C 10.378906 -11.65625 10.03125 -12.0625 10.03125 -12.0625 C 8.929688 -13.132812 7.394531 -13.65625 5.855469 -13.65625 C 3.335938 -13.65625 0.78125 -12.640625 0.78125 -9.859375 C 0.78125 -7.769531 2.550781 -6.523438 4.4375 -5.449219 C 4.898438 -5.160156 5.363281 -4.929688 5.800781 -4.667969 C 6.8125 -4.089844 8.292969 -3.246094 8.292969 -1.941406 C 8.292969 -0.636719 6.84375 -0.144531 5.914062 -0.144531 C 3.972656 -0.144531 1.390625 -2.261719 1.246094 -4.347656 L 0.957031 -4.347656 L 0.523438 -1.59375 C 0.550781 -1.535156 0.578125 -1.507812 0.609375 -1.449219 Z M 0.609375 -1.449219 "/></g></g></g><g fill="#d9d9d9" fill-opacity="1"><g transform="translate(838.073182, 207.287753)"><g/></g></g><g fill="#d9d9d9" fill-opacity="1"><g transform="translate(843.697666, 207.287753)"><g><path d="M 0.492188 -9.335938 C 0.492188 -3.539062 3.421875 0.347656 9.394531 0.347656 C 11.800781 0.347656 14.496094 -0.433594 16.09375 -2.347656 C 16.148438 -2.4375 16.207031 -2.523438 16.265625 -2.609375 C 16.265625 -2.636719 16.296875 -2.667969 16.324219 -2.726562 C 16.5 -4 16.585938 -5.304688 16.730469 -6.609375 L 16.207031 -6.609375 C 15.019531 -3.683594 13.105469 -0.289062 9.394531 -0.289062 C 5.101562 -0.289062 3.683594 -5.886719 3.683594 -9.164062 C 3.683594 -12.382812 5.101562 -18.613281 9.453125 -18.613281 C 12.816406 -18.613281 14.640625 -15.890625 16.003906 -13.308594 L 16.527344 -13.308594 C 16.382812 -14.410156 16.265625 -15.484375 16.09375 -16.554688 C 16.0625 -16.585938 16.0625 -16.613281 16.035156 -16.644531 C 15.976562 -16.699219 15.890625 -16.789062 15.800781 -16.875 C 15.65625 -17.019531 15.484375 -17.195312 15.453125 -17.222656 C 13.859375 -18.585938 11.714844 -19.109375 9.625 -19.109375 C 3.855469 -19.109375 0.492188 -15.046875 0.492188 -9.335938 Z M 0.492188 -9.335938 "/></g></g></g><g fill="#d9d9d9" fill-opacity="1"><g transform="translate(860.513133, 207.287753)"><g><path d="M 0.203125 -18.847656 L 0.203125 -18.324219 C 1.1875 -18.265625 1.59375 -17.773438 1.59375 -16.730469 L 1.59375 -2.058594 C 1.59375 -1.015625 1.1875 -0.523438 0.203125 -0.492188 L 0.203125 0 L 5.945312 0 L 5.945312 -0.492188 C 4.988281 -0.523438 4.582031 -1.015625 4.582031 -2.058594 L 4.582031 -20.210938 Z M 0.203125 -18.847656 "/></g></g></g><g fill="#d9d9d9" fill-opacity="1"><g transform="translate(866.65948, 207.287753)"><g><path d="M 0.726562 -6.640625 C 0.726562 -2.785156 2.871094 0.289062 6.871094 0.289062 C 9.597656 0.289062 10.929688 -1.074219 12.089844 -3.335938 L 11.828125 -3.507812 C 10.960938 -2.347656 9.480469 -1.625 8.0625 -1.625 C 4.988281 -1.625 3.855469 -4.84375 3.855469 -7.308594 L 3.855469 -7.710938 L 12.121094 -7.710938 L 12.121094 -7.800781 C 12.121094 -11.105469 10.121094 -13.65625 6.726562 -13.65625 C 2.785156 -13.65625 0.726562 -10.410156 0.726562 -6.640625 Z M 3.914062 -8.378906 C 4.03125 -9.769531 4.753906 -13.222656 6.582031 -13.222656 C 8.378906 -13.222656 8.960938 -9.742188 9.015625 -8.378906 L 9.015625 -8.175781 L 3.914062 -8.175781 Z M 3.914062 -8.378906 "/></g></g></g><g fill="#d9d9d9" fill-opacity="1"><g transform="translate(879.53201, 207.287753)"><g><path d="M 4.988281 0.261719 C 6.117188 0.261719 7.132812 -0.0273438 7.914062 -0.839844 L 8.117188 -1.015625 L 8.234375 -0.78125 C 8.582031 -0.144531 9.21875 0.144531 9.945312 0.144531 C 10.960938 0.144531 11.859375 -0.144531 12.46875 -0.898438 L 12.234375 -1.1875 C 12.0625 -1.074219 11.859375 -0.984375 11.628906 -0.984375 C 11.25 -0.984375 11.074219 -1.246094 11.019531 -1.480469 C 10.960938 -1.59375 10.960938 -1.738281 10.960938 -1.855469 C 10.960938 -1.972656 10.960938 -2.058594 10.960938 -2.175781 L 10.960938 -9.511719 C 10.960938 -12.410156 9.074219 -13.65625 6.261719 -13.65625 C 3.972656 -13.65625 1.21875 -12.785156 1.21875 -10.207031 C 1.21875 -9.597656 2 -9.308594 2.667969 -9.308594 C 3.363281 -9.308594 4.203125 -9.625 4.203125 -10.234375 C 4.203125 -11.425781 4.464844 -13.222656 6.203125 -13.222656 C 7.132812 -13.222656 7.566406 -12.671875 7.769531 -11.976562 C 7.972656 -11.453125 7.972656 -10.523438 7.972656 -9.945312 L 7.972656 -7.828125 L 7.683594 -7.945312 C 7.074219 -8.207031 6.378906 -8.292969 5.683594 -8.292969 C 2.8125 -8.292969 0.492188 -6.667969 0.492188 -3.652344 C 0.492188 -1.074219 2.550781 0.261719 4.988281 0.261719 Z M 3.625 -3.539062 C 3.625 -5.566406 4.496094 -7.625 6.902344 -7.625 C 7.21875 -7.625 7.539062 -7.597656 7.828125 -7.480469 L 7.972656 -7.421875 L 7.972656 -2.085938 C 7.972656 -1.015625 6.726562 -0.320312 5.855469 -0.320312 C 4 -0.320312 3.625 -2.203125 3.625 -3.539062 Z M 3.625 -3.539062 "/></g></g></g><g fill="#d9d9d9" fill-opacity="1"><g transform="translate(892.259579, 207.287753)"><g><path d="M 0.230469 -11.917969 L 0.230469 -11.394531 C 1.21875 -11.335938 1.625 -10.84375 1.625 -9.800781 L 1.625 -2.058594 C 1.625 -1.015625 1.21875 -0.523438 0.230469 -0.492188 L 0.230469 0 L 5.972656 0 L 5.972656 -0.492188 C 5.015625 -0.523438 4.609375 -1.015625 4.609375 -2.058594 L 4.609375 -9.800781 C 4.609375 -11.191406 5.945312 -12.933594 7.453125 -12.933594 C 9.21875 -12.933594 10.003906 -11.277344 10.003906 -9.800781 L 10.003906 -2.058594 C 10.003906 -1.015625 9.597656 -0.523438 8.613281 -0.492188 L 8.613281 0 L 14.351562 0 L 14.351562 -0.492188 C 13.367188 -0.523438 12.988281 -1.015625 12.988281 -2.058594 L 12.988281 -9.859375 C 12.988281 -12.46875 11.222656 -13.65625 8.726562 -13.65625 C 7.277344 -13.65625 5.828125 -13.28125 4.957031 -12.0625 L 4.609375 -11.539062 L 4.609375 -13.308594 Z M 0.230469 -11.917969 "/></g></g></g><g fill="#d9d9d9" fill-opacity="1"><g transform="translate(906.639697, 207.287753)"><g><path d="M 6.753906 0 L 6.753906 -0.464844 C 5.597656 -0.464844 3.855469 -0.578125 3.855469 -2.144531 C 3.855469 -2.40625 3.914062 -2.839844 4.03125 -3.101562 L 5.769531 -7.394531 L 12.265625 -7.394531 L 14.410156 -2.234375 C 14.46875 -2.058594 14.527344 -1.828125 14.527344 -1.59375 C 14.527344 -0.667969 13.570312 -0.550781 12.875 -0.464844 L 12.875 0 L 19.890625 0 L 19.890625 -0.492188 C 18.816406 -0.523438 18.152344 -0.984375 17.714844 -2.085938 L 10.757812 -18.789062 L 9.945312 -18.789062 L 3.246094 -2.929688 C 2.667969 -1.566406 1.652344 -0.609375 0.144531 -0.492188 L 0.144531 0 Z M 8.988281 -15.25 L 12.0625 -7.859375 L 5.972656 -7.859375 Z M 8.988281 -15.25 "/></g></g></g><g fill="#d9d9d9" fill-opacity="1"><g transform="translate(926.325387, 207.287753)"><g><path d="M 0.347656 -11.917969 L 0.347656 -11.394531 C 1.332031 -11.335938 1.738281 -10.84375 1.738281 -9.800781 L 1.738281 -2.058594 C 1.738281 -1.015625 1.332031 -0.523438 0.347656 -0.492188 L 0.347656 0 L 6.089844 0 L 6.089844 -0.492188 C 5.132812 -0.523438 4.726562 -1.015625 4.726562 -2.058594 L 4.726562 -9.800781 C 4.726562 -10.988281 5.480469 -12.179688 6.8125 -12.179688 C 7.886719 -12.179688 8.320312 -11.570312 8.699219 -11.019531 C 8.785156 -10.902344 8.902344 -10.757812 8.988281 -10.640625 C 9.074219 -10.523438 9.191406 -10.410156 9.308594 -10.320312 C 9.511719 -10.148438 9.769531 -10.03125 10.207031 -10.03125 C 10.988281 -10.03125 11.683594 -10.523438 11.683594 -11.308594 C 11.683594 -11.65625 11.539062 -12.003906 11.367188 -12.324219 C 10.785156 -13.308594 9.683594 -13.6875 8.554688 -13.6875 C 7.132812 -13.6875 5.828125 -13.078125 5.101562 -11.886719 L 4.726562 -11.25 L 4.726562 -13.308594 Z M 0.347656 -11.917969 "/></g></g></g><g fill="#d9d9d9" fill-opacity="1"><g transform="translate(938.067219, 207.287753)"><g><path d="M 6.554688 0.289062 C 9.074219 0.289062 10.582031 -0.839844 11.683594 -2.988281 L 11.367188 -3.1875 C 10.613281 -2.117188 9.308594 -1.507812 8.03125 -1.507812 C 4.871094 -1.507812 3.625 -4.84375 3.625 -7.394531 C 3.625 -9.105469 3.972656 -13.191406 6.320312 -13.191406 C 7.480469 -13.191406 8.003906 -12.121094 8.261719 -11.164062 C 8.378906 -10.84375 8.4375 -10.554688 8.523438 -10.292969 C 8.726562 -9.511719 9.21875 -9.046875 10.03125 -9.046875 C 10.84375 -9.046875 11.511719 -9.566406 11.511719 -10.351562 C 11.511719 -12.554688 8.988281 -13.65625 6.988281 -13.65625 C 2.636719 -13.65625 0.523438 -10.929688 0.523438 -6.667969 C 0.523438 -2.753906 2.492188 0.289062 6.554688 0.289062 Z M 6.554688 0.289062 "/></g></g></g><g fill="#d9d9d9" fill-opacity="1"><g transform="translate(950.243938, 207.287753)"><g><path d="M 0.144531 -18.847656 L 0.144531 -18.324219 C 1.128906 -18.265625 1.535156 -17.773438 1.535156 -16.730469 L 1.535156 -2.058594 C 1.535156 -1.015625 1.128906 -0.523438 0.144531 -0.492188 L 0.144531 0 L 5.886719 0 L 5.886719 -0.492188 C 4.929688 -0.523438 4.523438 -1.015625 4.523438 -2.058594 L 4.523438 -9.859375 C 4.523438 -11.394531 5.597656 -12.988281 7.308594 -12.988281 C 9.308594 -12.988281 10.03125 -11.628906 10.03125 -9.859375 L 10.03125 -2.058594 C 10.03125 -1.015625 9.625 -0.523438 8.640625 -0.492188 L 8.640625 0 L 14.382812 0 L 14.382812 -0.492188 C 13.425781 -0.523438 13.019531 -1.015625 13.019531 -2.058594 L 13.019531 -9.859375 C 13.019531 -12.613281 11.046875 -13.65625 8.496094 -13.65625 C 7.160156 -13.65625 5.828125 -13.222656 4.871094 -12.265625 L 4.523438 -11.945312 L 4.523438 -20.210938 Z M 0.144531 -18.847656 "/></g></g></g><g fill="#d9d9d9" fill-opacity="1"><g transform="translate(964.566057, 207.287753)"><g><path d="M 0.320312 -11.917969 L 0.320312 -11.394531 C 1.304688 -11.335938 1.710938 -10.84375 1.710938 -9.800781 L 1.710938 -2.058594 C 1.710938 -1.015625 1.304688 -0.523438 0.320312 -0.492188 L 0.320312 0 L 6.058594 0 L 6.058594 -0.492188 C 5.101562 -0.523438 4.695312 -1.015625 4.695312 -2.058594 L 4.695312 -13.308594 Z M 0.726562 -16.816406 C 0.726562 -15.714844 1.625 -14.789062 2.695312 -14.789062 C 3.742188 -14.789062 4.695312 -15.746094 4.695312 -16.816406 C 4.695312 -17.890625 3.769531 -18.789062 2.695312 -18.789062 C 1.625 -18.789062 0.726562 -17.890625 0.726562 -16.816406 Z M 0.726562 -16.816406 "/></g></g></g><g fill="#d9d9d9" fill-opacity="1"><g transform="translate(970.770379, 207.287753)"><g><path d="M -0.175781 -13.511719 L -0.175781 -13.019531 L 1.363281 -13.019531 L 1.363281 -2.523438 C 1.363281 -0.753906 2.320312 0.261719 4.089844 0.261719 C 5.394531 0.261719 6.378906 -0.289062 7.191406 -1.304688 L 6.929688 -1.625 C 6.582031 -1.332031 6.117188 -1.101562 5.625 -1.101562 C 4.640625 -1.101562 4.347656 -1.941406 4.347656 -2.695312 L 4.347656 -13.019531 L 7.046875 -13.019531 L 7.046875 -13.484375 L 4.347656 -13.484375 L 4.347656 -17.367188 C 3.421875 -15.6875 1.625 -13.800781 -0.175781 -13.511719 Z M -0.175781 -13.511719 "/></g></g></g><g fill="#d9d9d9" fill-opacity="1"><g transform="translate(978.221375, 207.287753)"><g><path d="M 0.726562 -6.640625 C 0.726562 -2.785156 2.871094 0.289062 6.871094 0.289062 C 9.597656 0.289062 10.929688 -1.074219 12.089844 -3.335938 L 11.828125 -3.507812 C 10.960938 -2.347656 9.480469 -1.625 8.0625 -1.625 C 4.988281 -1.625 3.855469 -4.84375 3.855469 -7.308594 L 3.855469 -7.710938 L 12.121094 -7.710938 L 12.121094 -7.800781 C 12.121094 -11.105469 10.121094 -13.65625 6.726562 -13.65625 C 2.785156 -13.65625 0.726562 -10.410156 0.726562 -6.640625 Z M 3.914062 -8.378906 C 4.03125 -9.769531 4.753906 -13.222656 6.582031 -13.222656 C 8.378906 -13.222656 8.960938 -9.742188 9.015625 -8.378906 L 9.015625 -8.175781 L 3.914062 -8.175781 Z M 3.914062 -8.378906 "/></g></g></g><g fill="#d9d9d9" fill-opacity="1"><g transform="translate(991.093918, 207.287753)"><g><path d="M 6.554688 0.289062 C 9.074219 0.289062 10.582031 -0.839844 11.683594 -2.988281 L 11.367188 -3.1875 C 10.613281 -2.117188 9.308594 -1.507812 8.03125 -1.507812 C 4.871094 -1.507812 3.625 -4.84375 3.625 -7.394531 C 3.625 -9.105469 3.972656 -13.191406 6.320312 -13.191406 C 7.480469 -13.191406 8.003906 -12.121094 8.261719 -11.164062 C 8.378906 -10.84375 8.4375 -10.554688 8.523438 -10.292969 C 8.726562 -9.511719 9.21875 -9.046875 10.03125 -9.046875 C 10.84375 -9.046875 11.511719 -9.566406 11.511719 -10.351562 C 11.511719 -12.554688 8.988281 -13.65625 6.988281 -13.65625 C 2.636719 -13.65625 0.523438 -10.929688 0.523438 -6.667969 C 0.523438 -2.753906 2.492188 0.289062 6.554688 0.289062 Z M 6.554688 0.289062 "/></g></g></g><g fill="#d9d9d9" fill-opacity="1"><g transform="translate(1003.270636, 207.287753)"><g><path d="M -0.175781 -13.511719 L -0.175781 -13.019531 L 1.363281 -13.019531 L 1.363281 -2.523438 C 1.363281 -0.753906 2.320312 0.261719 4.089844 0.261719 C 5.394531 0.261719 6.378906 -0.289062 7.191406 -1.304688 L 6.929688 -1.625 C 6.582031 -1.332031 6.117188 -1.101562 5.625 -1.101562 C 4.640625 -1.101562 4.347656 -1.941406 4.347656 -2.695312 L 4.347656 -13.019531 L 7.046875 -13.019531 L 7.046875 -13.484375 L 4.347656 -13.484375 L 4.347656 -17.367188 C 3.421875 -15.6875 1.625 -13.800781 -0.175781 -13.511719 Z M -0.175781 -13.511719 "/></g></g></g><g fill="#d9d9d9" fill-opacity="1"><g transform="translate(1010.721632, 207.287753)"><g><path d="M 1.566406 -11.425781 L 1.566406 -3.828125 C 1.566406 -1.246094 2.988281 0 5.507812 0 C 6.929688 0 8.378906 -0.492188 9.277344 -1.625 L 9.625 -2.058594 L 9.625 -0.0859375 L 14.003906 -1.449219 L 14.003906 -2 C 12.933594 -2.085938 12.613281 -2.957031 12.613281 -3.886719 L 12.613281 -13.484375 L 8.261719 -13.484375 L 8.261719 -13.019531 C 9.25 -12.960938 9.625 -12.46875 9.625 -11.425781 L 9.625 -3.886719 C 9.625 -2.40625 8.523438 -1.101562 6.988281 -1.101562 C 5.191406 -1.101562 4.550781 -2.261719 4.550781 -3.886719 L 4.550781 -13.484375 L 0.175781 -13.484375 L 0.175781 -13.019531 C 1.160156 -12.960938 1.566406 -12.46875 1.566406 -11.425781 Z M 1.566406 -11.425781 "/></g></g></g><g fill="#d9d9d9" fill-opacity="1"><g transform="translate(1024.75385, 207.287753)"><g><path d="M 0.347656 -11.917969 L 0.347656 -11.394531 C 1.332031 -11.335938 1.738281 -10.84375 1.738281 -9.800781 L 1.738281 -2.058594 C 1.738281 -1.015625 1.332031 -0.523438 0.347656 -0.492188 L 0.347656 0 L 6.089844 0 L 6.089844 -0.492188 C 5.132812 -0.523438 4.726562 -1.015625 4.726562 -2.058594 L 4.726562 -9.800781 C 4.726562 -10.988281 5.480469 -12.179688 6.8125 -12.179688 C 7.886719 -12.179688 8.320312 -11.570312 8.699219 -11.019531 C 8.785156 -10.902344 8.902344 -10.757812 8.988281 -10.640625 C 9.074219 -10.523438 9.191406 -10.410156 9.308594 -10.320312 C 9.511719 -10.148438 9.769531 -10.03125 10.207031 -10.03125 C 10.988281 -10.03125 11.683594 -10.523438 11.683594 -11.308594 C 11.683594 -11.65625 11.539062 -12.003906 11.367188 -12.324219 C 10.785156 -13.308594 9.683594 -13.6875 8.554688 -13.6875 C 7.132812 -13.6875 5.828125 -13.078125 5.101562 -11.886719 L 4.726562 -11.25 L 4.726562 -13.308594 Z M 0.347656 -11.917969 "/></g></g></g><g fill="#d9d9d9" fill-opacity="1"><g transform="translate(1036.495693, 207.287753)"><g><path d="M 0.726562 -6.640625 C 0.726562 -2.785156 2.871094 0.289062 6.871094 0.289062 C 9.597656 0.289062 10.929688 -1.074219 12.089844 -3.335938 L 11.828125 -3.507812 C 10.960938 -2.347656 9.480469 -1.625 8.0625 -1.625 C 4.988281 -1.625 3.855469 -4.84375 3.855469 -7.308594 L 3.855469 -7.710938 L 12.121094 -7.710938 L 12.121094 -7.800781 C 12.121094 -11.105469 10.121094 -13.65625 6.726562 -13.65625 C 2.785156 -13.65625 0.726562 -10.410156 0.726562 -6.640625 Z M 3.914062 -8.378906 C 4.03125 -9.769531 4.753906 -13.222656 6.582031 -13.222656 C 8.378906 -13.222656 8.960938 -9.742188 9.015625 -8.378906 L 9.015625 -8.175781 L 3.914062 -8.175781 Z M 3.914062 -8.378906 "/></g></g></g><g clip-path="url(#d8a327cae9)"><path fill="#d9d9d9" d="M 966.082031 101.609375 L 943.269531 78.734375 L 921.570312 100.492188 L 899.875 78.734375 L 878.175781 100.492188 L 856.476562 78.734375 L 833.664062 101.609375 L 856.476562 124.484375 L 878.175781 102.730469 L 899.875 124.484375 L 921.570312 102.730469 L 943.269531 124.484375 Z M 856.476562 122.246094 L 835.898438 101.609375 L 856.476562 80.976562 L 877.058594 101.609375 Z M 899.875 122.246094 L 879.292969 101.609375 L 899.875 80.976562 L 920.453125 101.609375 Z M 943.269531 80.976562 L 963.851562 101.609375 L 943.269531 122.246094 L 922.6875 101.609375 Z M 943.269531 80.976562 " fill-opacity="1" fill-rule="nonzero"/></g></svg>